<mxfile host="app.diagrams.net" agent="Mozilla/5.0 (X11; Linux x86_64) AppleWebKit/537.36 (KHTML, like Gecko) Chrome/133.0.0.0 Safari/537.36" version="27.2.0">
  <diagram id="C5RBs43oDa-KdzZeNtuy" name="Page-1">
    <mxGraphModel dx="1007" dy="1139" grid="1" gridSize="10" guides="1" tooltips="1" connect="1" arrows="1" fold="1" page="1" pageScale="1" pageWidth="827" pageHeight="1169" math="0" shadow="0">
      <root>
        <mxCell id="WIyWlLk6GJQsqaUBKTNV-0" />
        <mxCell id="WIyWlLk6GJQsqaUBKTNV-1" parent="WIyWlLk6GJQsqaUBKTNV-0" />
        <mxCell id="5kgWmKOxe0cfHhXTzjxk-0" style="edgeStyle=orthogonalEdgeStyle;rounded=0;orthogonalLoop=1;jettySize=auto;html=1;labelBackgroundColor=none;strokeColor=#182E3E;fontColor=default;" edge="1" parent="WIyWlLk6GJQsqaUBKTNV-1" source="5kgWmKOxe0cfHhXTzjxk-1" target="5kgWmKOxe0cfHhXTzjxk-3">
          <mxGeometry relative="1" as="geometry" />
        </mxCell>
        <mxCell id="5kgWmKOxe0cfHhXTzjxk-1" value="&lt;font style=&quot;color: rgb(242, 242, 242);&quot;&gt;Start&lt;/font&gt;" style="ellipse;whiteSpace=wrap;html=1;labelBackgroundColor=none;fillColor=#F5AB50;strokeColor=#909090;fontColor=#1A1A1A;" vertex="1" parent="WIyWlLk6GJQsqaUBKTNV-1">
          <mxGeometry x="147" y="45" width="90" height="50" as="geometry" />
        </mxCell>
        <mxCell id="5kgWmKOxe0cfHhXTzjxk-2" style="edgeStyle=orthogonalEdgeStyle;rounded=0;orthogonalLoop=1;jettySize=auto;html=1;entryX=0.5;entryY=0;entryDx=0;entryDy=0;labelBackgroundColor=none;strokeColor=#182E3E;fontColor=default;" edge="1" parent="WIyWlLk6GJQsqaUBKTNV-1" source="5kgWmKOxe0cfHhXTzjxk-3" target="5kgWmKOxe0cfHhXTzjxk-6">
          <mxGeometry relative="1" as="geometry" />
        </mxCell>
        <mxCell id="5kgWmKOxe0cfHhXTzjxk-3" value="Enter Units" style="rounded=0;whiteSpace=wrap;html=1;labelBackgroundColor=none;fillColor=#F5AB50;strokeColor=#909090;fontColor=#1A1A1A;" vertex="1" parent="WIyWlLk6GJQsqaUBKTNV-1">
          <mxGeometry x="70" y="125" width="245" height="40" as="geometry" />
        </mxCell>
        <mxCell id="5kgWmKOxe0cfHhXTzjxk-4" style="edgeStyle=orthogonalEdgeStyle;rounded=0;orthogonalLoop=1;jettySize=auto;html=1;entryX=0;entryY=0.5;entryDx=0;entryDy=0;labelBackgroundColor=none;strokeColor=#182E3E;fontColor=default;" edge="1" parent="WIyWlLk6GJQsqaUBKTNV-1" source="5kgWmKOxe0cfHhXTzjxk-6" target="5kgWmKOxe0cfHhXTzjxk-26">
          <mxGeometry relative="1" as="geometry" />
        </mxCell>
        <mxCell id="5kgWmKOxe0cfHhXTzjxk-5" style="edgeStyle=orthogonalEdgeStyle;rounded=0;orthogonalLoop=1;jettySize=auto;html=1;entryX=0.5;entryY=0;entryDx=0;entryDy=0;labelBackgroundColor=none;strokeColor=#182E3E;fontColor=default;" edge="1" parent="WIyWlLk6GJQsqaUBKTNV-1" source="5kgWmKOxe0cfHhXTzjxk-6" target="5kgWmKOxe0cfHhXTzjxk-9">
          <mxGeometry relative="1" as="geometry" />
        </mxCell>
        <mxCell id="5kgWmKOxe0cfHhXTzjxk-6" value="case:100" style="rhombus;whiteSpace=wrap;html=1;labelBackgroundColor=none;fillColor=#F5AB50;strokeColor=#909090;fontColor=#1A1A1A;" vertex="1" parent="WIyWlLk6GJQsqaUBKTNV-1">
          <mxGeometry x="152" y="195" width="80" height="80" as="geometry" />
        </mxCell>
        <mxCell id="5kgWmKOxe0cfHhXTzjxk-7" style="edgeStyle=orthogonalEdgeStyle;rounded=0;orthogonalLoop=1;jettySize=auto;html=1;entryX=0;entryY=0.5;entryDx=0;entryDy=0;labelBackgroundColor=none;strokeColor=#182E3E;fontColor=default;" edge="1" parent="WIyWlLk6GJQsqaUBKTNV-1" source="5kgWmKOxe0cfHhXTzjxk-9" target="5kgWmKOxe0cfHhXTzjxk-28">
          <mxGeometry relative="1" as="geometry" />
        </mxCell>
        <mxCell id="5kgWmKOxe0cfHhXTzjxk-8" style="edgeStyle=orthogonalEdgeStyle;rounded=0;orthogonalLoop=1;jettySize=auto;html=1;strokeColor=#182E3E;fontColor=#1A1A1A;" edge="1" parent="WIyWlLk6GJQsqaUBKTNV-1" source="5kgWmKOxe0cfHhXTzjxk-9" target="5kgWmKOxe0cfHhXTzjxk-15">
          <mxGeometry relative="1" as="geometry" />
        </mxCell>
        <mxCell id="5kgWmKOxe0cfHhXTzjxk-9" value="case:200" style="rhombus;whiteSpace=wrap;html=1;labelBackgroundColor=none;fillColor=#F5AB50;strokeColor=#909090;fontColor=#1A1A1A;" vertex="1" parent="WIyWlLk6GJQsqaUBKTNV-1">
          <mxGeometry x="152" y="305" width="80" height="80" as="geometry" />
        </mxCell>
        <mxCell id="5kgWmKOxe0cfHhXTzjxk-10" style="edgeStyle=orthogonalEdgeStyle;rounded=0;orthogonalLoop=1;jettySize=auto;html=1;labelBackgroundColor=none;strokeColor=#182E3E;fontColor=default;" edge="1" parent="WIyWlLk6GJQsqaUBKTNV-1" source="5kgWmKOxe0cfHhXTzjxk-12">
          <mxGeometry relative="1" as="geometry">
            <mxPoint x="192" y="620" as="targetPoint" />
          </mxGeometry>
        </mxCell>
        <mxCell id="5kgWmKOxe0cfHhXTzjxk-11" style="edgeStyle=orthogonalEdgeStyle;rounded=0;orthogonalLoop=1;jettySize=auto;html=1;entryX=0;entryY=0.5;entryDx=0;entryDy=0;labelBackgroundColor=none;strokeColor=#182E3E;fontColor=default;" edge="1" parent="WIyWlLk6GJQsqaUBKTNV-1" source="5kgWmKOxe0cfHhXTzjxk-12" target="5kgWmKOxe0cfHhXTzjxk-32">
          <mxGeometry relative="1" as="geometry" />
        </mxCell>
        <mxCell id="5kgWmKOxe0cfHhXTzjxk-12" value="case:350" style="rhombus;whiteSpace=wrap;html=1;labelBackgroundColor=none;fillColor=#F5AB50;strokeColor=#909090;fontColor=#1A1A1A;" vertex="1" parent="WIyWlLk6GJQsqaUBKTNV-1">
          <mxGeometry x="152" y="515" width="80" height="80" as="geometry" />
        </mxCell>
        <mxCell id="5kgWmKOxe0cfHhXTzjxk-13" style="edgeStyle=orthogonalEdgeStyle;rounded=0;orthogonalLoop=1;jettySize=auto;html=1;entryX=0.5;entryY=0;entryDx=0;entryDy=0;labelBackgroundColor=none;strokeColor=#182E3E;fontColor=default;" edge="1" parent="WIyWlLk6GJQsqaUBKTNV-1" source="5kgWmKOxe0cfHhXTzjxk-15" target="5kgWmKOxe0cfHhXTzjxk-12">
          <mxGeometry relative="1" as="geometry" />
        </mxCell>
        <mxCell id="5kgWmKOxe0cfHhXTzjxk-14" style="edgeStyle=orthogonalEdgeStyle;rounded=0;orthogonalLoop=1;jettySize=auto;html=1;entryX=0;entryY=0.5;entryDx=0;entryDy=0;labelBackgroundColor=none;strokeColor=#182E3E;fontColor=default;" edge="1" parent="WIyWlLk6GJQsqaUBKTNV-1" source="5kgWmKOxe0cfHhXTzjxk-15" target="5kgWmKOxe0cfHhXTzjxk-30">
          <mxGeometry relative="1" as="geometry" />
        </mxCell>
        <mxCell id="5kgWmKOxe0cfHhXTzjxk-15" value="case:250" style="rhombus;whiteSpace=wrap;html=1;labelBackgroundColor=none;fillColor=#F5AB50;strokeColor=#909090;fontColor=#1A1A1A;" vertex="1" parent="WIyWlLk6GJQsqaUBKTNV-1">
          <mxGeometry x="152" y="405" width="80" height="80" as="geometry" />
        </mxCell>
        <mxCell id="5kgWmKOxe0cfHhXTzjxk-16" style="edgeStyle=orthogonalEdgeStyle;rounded=0;orthogonalLoop=1;jettySize=auto;html=1;entryX=0.5;entryY=0;entryDx=0;entryDy=0;labelBackgroundColor=none;strokeColor=#182E3E;fontColor=default;" edge="1" parent="WIyWlLk6GJQsqaUBKTNV-1" source="5kgWmKOxe0cfHhXTzjxk-18" target="5kgWmKOxe0cfHhXTzjxk-21">
          <mxGeometry relative="1" as="geometry" />
        </mxCell>
        <mxCell id="5kgWmKOxe0cfHhXTzjxk-17" style="edgeStyle=orthogonalEdgeStyle;rounded=0;orthogonalLoop=1;jettySize=auto;html=1;entryX=0;entryY=0.5;entryDx=0;entryDy=0;labelBackgroundColor=none;strokeColor=#182E3E;fontColor=default;" edge="1" parent="WIyWlLk6GJQsqaUBKTNV-1" source="5kgWmKOxe0cfHhXTzjxk-18" target="5kgWmKOxe0cfHhXTzjxk-34">
          <mxGeometry relative="1" as="geometry" />
        </mxCell>
        <mxCell id="5kgWmKOxe0cfHhXTzjxk-18" value="case:400" style="rhombus;whiteSpace=wrap;html=1;labelBackgroundColor=none;fillColor=#F5AB50;strokeColor=#909090;fontColor=#1A1A1A;" vertex="1" parent="WIyWlLk6GJQsqaUBKTNV-1">
          <mxGeometry x="152" y="625" width="80" height="80" as="geometry" />
        </mxCell>
        <mxCell id="5kgWmKOxe0cfHhXTzjxk-19" style="edgeStyle=orthogonalEdgeStyle;rounded=0;orthogonalLoop=1;jettySize=auto;html=1;entryX=0;entryY=0.5;entryDx=0;entryDy=0;labelBackgroundColor=none;strokeColor=#182E3E;fontColor=default;" edge="1" parent="WIyWlLk6GJQsqaUBKTNV-1" source="5kgWmKOxe0cfHhXTzjxk-21" target="5kgWmKOxe0cfHhXTzjxk-36">
          <mxGeometry relative="1" as="geometry" />
        </mxCell>
        <mxCell id="5kgWmKOxe0cfHhXTzjxk-20" style="edgeStyle=orthogonalEdgeStyle;rounded=0;orthogonalLoop=1;jettySize=auto;html=1;entryX=0.5;entryY=0;entryDx=0;entryDy=0;labelBackgroundColor=none;strokeColor=#182E3E;fontColor=default;" edge="1" parent="WIyWlLk6GJQsqaUBKTNV-1" source="5kgWmKOxe0cfHhXTzjxk-21" target="5kgWmKOxe0cfHhXTzjxk-24">
          <mxGeometry relative="1" as="geometry">
            <mxPoint x="192" y="850" as="targetPoint" />
          </mxGeometry>
        </mxCell>
        <mxCell id="5kgWmKOxe0cfHhXTzjxk-21" value="case:500" style="rhombus;whiteSpace=wrap;html=1;labelBackgroundColor=none;fillColor=#F5AB50;strokeColor=#909090;fontColor=#1A1A1A;" vertex="1" parent="WIyWlLk6GJQsqaUBKTNV-1">
          <mxGeometry x="152" y="735" width="80" height="80" as="geometry" />
        </mxCell>
        <mxCell id="5kgWmKOxe0cfHhXTzjxk-24" value="Stop" style="ellipse;whiteSpace=wrap;html=1;labelBackgroundColor=none;fillColor=#F5AB50;strokeColor=#909090;fontColor=#1A1A1A;" vertex="1" parent="WIyWlLk6GJQsqaUBKTNV-1">
          <mxGeometry x="147" y="880" width="90" height="50" as="geometry" />
        </mxCell>
        <mxCell id="5kgWmKOxe0cfHhXTzjxk-25" style="edgeStyle=orthogonalEdgeStyle;rounded=0;orthogonalLoop=1;jettySize=auto;html=1;strokeColor=#182E3E;fontColor=#1A1A1A;entryX=1;entryY=0.5;entryDx=0;entryDy=0;" edge="1" parent="WIyWlLk6GJQsqaUBKTNV-1" source="5kgWmKOxe0cfHhXTzjxk-26" target="5kgWmKOxe0cfHhXTzjxk-24">
          <mxGeometry relative="1" as="geometry">
            <mxPoint x="260" y="900" as="targetPoint" />
            <Array as="points">
              <mxPoint x="651" y="235" />
              <mxPoint x="651" y="905" />
            </Array>
          </mxGeometry>
        </mxCell>
        <mxCell id="5kgWmKOxe0cfHhXTzjxk-26" value="1800" style="shape=parallelogram;perimeter=parallelogramPerimeter;whiteSpace=wrap;html=1;fixedSize=1;labelBackgroundColor=none;fillColor=#F5AB50;strokeColor=#909090;fontColor=#1A1A1A;" vertex="1" parent="WIyWlLk6GJQsqaUBKTNV-1">
          <mxGeometry x="315" y="210" width="260" height="50" as="geometry" />
        </mxCell>
        <mxCell id="5kgWmKOxe0cfHhXTzjxk-27" style="edgeStyle=orthogonalEdgeStyle;rounded=0;orthogonalLoop=1;jettySize=auto;html=1;strokeColor=#182E3E;fontColor=#1A1A1A;" edge="1" parent="WIyWlLk6GJQsqaUBKTNV-1" source="5kgWmKOxe0cfHhXTzjxk-28">
          <mxGeometry relative="1" as="geometry">
            <mxPoint x="650" y="345" as="targetPoint" />
          </mxGeometry>
        </mxCell>
        <mxCell id="5kgWmKOxe0cfHhXTzjxk-28" value="3600" style="shape=parallelogram;perimeter=parallelogramPerimeter;whiteSpace=wrap;html=1;fixedSize=1;labelBackgroundColor=none;fillColor=#F5AB50;strokeColor=#909090;fontColor=#1A1A1A;" vertex="1" parent="WIyWlLk6GJQsqaUBKTNV-1">
          <mxGeometry x="315" y="320" width="260" height="50" as="geometry" />
        </mxCell>
        <mxCell id="5kgWmKOxe0cfHhXTzjxk-29" style="edgeStyle=orthogonalEdgeStyle;rounded=0;orthogonalLoop=1;jettySize=auto;html=1;strokeColor=#182E3E;fontColor=#1A1A1A;" edge="1" parent="WIyWlLk6GJQsqaUBKTNV-1" source="5kgWmKOxe0cfHhXTzjxk-30">
          <mxGeometry relative="1" as="geometry">
            <mxPoint x="650" y="445" as="targetPoint" />
          </mxGeometry>
        </mxCell>
        <mxCell id="5kgWmKOxe0cfHhXTzjxk-30" value="7500" style="shape=parallelogram;perimeter=parallelogramPerimeter;whiteSpace=wrap;html=1;fixedSize=1;labelBackgroundColor=none;fillColor=#F5AB50;strokeColor=#909090;fontColor=#1A1A1A;" vertex="1" parent="WIyWlLk6GJQsqaUBKTNV-1">
          <mxGeometry x="315" y="420" width="260" height="50" as="geometry" />
        </mxCell>
        <mxCell id="5kgWmKOxe0cfHhXTzjxk-31" style="edgeStyle=orthogonalEdgeStyle;rounded=0;orthogonalLoop=1;jettySize=auto;html=1;strokeColor=#182E3E;fontColor=#1A1A1A;" edge="1" parent="WIyWlLk6GJQsqaUBKTNV-1" source="5kgWmKOxe0cfHhXTzjxk-32">
          <mxGeometry relative="1" as="geometry">
            <mxPoint x="650" y="555" as="targetPoint" />
          </mxGeometry>
        </mxCell>
        <mxCell id="5kgWmKOxe0cfHhXTzjxk-32" value="10500" style="shape=parallelogram;perimeter=parallelogramPerimeter;whiteSpace=wrap;html=1;fixedSize=1;labelBackgroundColor=none;fillColor=#F5AB50;strokeColor=#909090;fontColor=#1A1A1A;" vertex="1" parent="WIyWlLk6GJQsqaUBKTNV-1">
          <mxGeometry x="315" y="530" width="260" height="50" as="geometry" />
        </mxCell>
        <mxCell id="5kgWmKOxe0cfHhXTzjxk-33" style="edgeStyle=orthogonalEdgeStyle;rounded=0;orthogonalLoop=1;jettySize=auto;html=1;strokeColor=#182E3E;fontColor=#1A1A1A;" edge="1" parent="WIyWlLk6GJQsqaUBKTNV-1" source="5kgWmKOxe0cfHhXTzjxk-34">
          <mxGeometry relative="1" as="geometry">
            <mxPoint x="650" y="665" as="targetPoint" />
          </mxGeometry>
        </mxCell>
        <mxCell id="5kgWmKOxe0cfHhXTzjxk-34" value="16000" style="shape=parallelogram;perimeter=parallelogramPerimeter;whiteSpace=wrap;html=1;fixedSize=1;labelBackgroundColor=none;fillColor=#F5AB50;strokeColor=#909090;fontColor=#1A1A1A;" vertex="1" parent="WIyWlLk6GJQsqaUBKTNV-1">
          <mxGeometry x="315" y="640" width="260" height="50" as="geometry" />
        </mxCell>
        <mxCell id="5kgWmKOxe0cfHhXTzjxk-35" style="edgeStyle=orthogonalEdgeStyle;rounded=0;orthogonalLoop=1;jettySize=auto;html=1;strokeColor=#182E3E;fontColor=#1A1A1A;" edge="1" parent="WIyWlLk6GJQsqaUBKTNV-1" source="5kgWmKOxe0cfHhXTzjxk-36">
          <mxGeometry relative="1" as="geometry">
            <mxPoint x="650" y="775" as="targetPoint" />
          </mxGeometry>
        </mxCell>
        <mxCell id="5kgWmKOxe0cfHhXTzjxk-36" value="20000" style="shape=parallelogram;perimeter=parallelogramPerimeter;whiteSpace=wrap;html=1;fixedSize=1;labelBackgroundColor=none;fillColor=#F5AB50;strokeColor=#909090;fontColor=#1A1A1A;" vertex="1" parent="WIyWlLk6GJQsqaUBKTNV-1">
          <mxGeometry x="315" y="750" width="260" height="50" as="geometry" />
        </mxCell>
        <mxCell id="5kgWmKOxe0cfHhXTzjxk-39" value="Yes" style="text;html=1;align=center;verticalAlign=middle;resizable=0;points=[];autosize=1;strokeColor=none;fillColor=none;fontColor=#1A1A1A;" vertex="1" parent="WIyWlLk6GJQsqaUBKTNV-1">
          <mxGeometry x="250" y="210" width="40" height="30" as="geometry" />
        </mxCell>
        <mxCell id="5kgWmKOxe0cfHhXTzjxk-40" value="Yes" style="text;html=1;align=center;verticalAlign=middle;resizable=0;points=[];autosize=1;strokeColor=none;fillColor=none;fontColor=#1A1A1A;" vertex="1" parent="WIyWlLk6GJQsqaUBKTNV-1">
          <mxGeometry x="250" y="320" width="40" height="30" as="geometry" />
        </mxCell>
        <mxCell id="5kgWmKOxe0cfHhXTzjxk-41" value="Yes" style="text;html=1;align=center;verticalAlign=middle;resizable=0;points=[];autosize=1;strokeColor=none;fillColor=none;fontColor=#1A1A1A;" vertex="1" parent="WIyWlLk6GJQsqaUBKTNV-1">
          <mxGeometry x="250" y="530" width="40" height="30" as="geometry" />
        </mxCell>
        <mxCell id="5kgWmKOxe0cfHhXTzjxk-42" value="Yes" style="text;html=1;align=center;verticalAlign=middle;resizable=0;points=[];autosize=1;strokeColor=none;fillColor=none;fontColor=#1A1A1A;" vertex="1" parent="WIyWlLk6GJQsqaUBKTNV-1">
          <mxGeometry x="250" y="420" width="40" height="30" as="geometry" />
        </mxCell>
        <mxCell id="5kgWmKOxe0cfHhXTzjxk-44" value="Yes" style="text;html=1;align=center;verticalAlign=middle;resizable=0;points=[];autosize=1;strokeColor=none;fillColor=none;fontColor=#1A1A1A;" vertex="1" parent="WIyWlLk6GJQsqaUBKTNV-1">
          <mxGeometry x="250" y="750" width="40" height="30" as="geometry" />
        </mxCell>
        <mxCell id="5kgWmKOxe0cfHhXTzjxk-45" value="Yes" style="text;html=1;align=center;verticalAlign=middle;resizable=0;points=[];autosize=1;strokeColor=none;fillColor=none;fontColor=#1A1A1A;" vertex="1" parent="WIyWlLk6GJQsqaUBKTNV-1">
          <mxGeometry x="250" y="640" width="40" height="30" as="geometry" />
        </mxCell>
        <mxCell id="5kgWmKOxe0cfHhXTzjxk-46" value="No" style="text;html=1;align=center;verticalAlign=middle;resizable=0;points=[];autosize=1;strokeColor=none;fillColor=none;fontColor=#1A1A1A;" vertex="1" parent="WIyWlLk6GJQsqaUBKTNV-1">
          <mxGeometry x="190" y="270" width="40" height="30" as="geometry" />
        </mxCell>
        <mxCell id="5kgWmKOxe0cfHhXTzjxk-47" value="No" style="text;html=1;align=center;verticalAlign=middle;resizable=0;points=[];autosize=1;strokeColor=none;fillColor=none;fontColor=#1A1A1A;" vertex="1" parent="WIyWlLk6GJQsqaUBKTNV-1">
          <mxGeometry x="192" y="380" width="40" height="30" as="geometry" />
        </mxCell>
        <mxCell id="5kgWmKOxe0cfHhXTzjxk-48" value="No" style="text;html=1;align=center;verticalAlign=middle;resizable=0;points=[];autosize=1;strokeColor=none;fillColor=none;fontColor=#1A1A1A;" vertex="1" parent="WIyWlLk6GJQsqaUBKTNV-1">
          <mxGeometry x="190" y="485" width="40" height="30" as="geometry" />
        </mxCell>
        <mxCell id="5kgWmKOxe0cfHhXTzjxk-49" value="No" style="text;html=1;align=center;verticalAlign=middle;resizable=0;points=[];autosize=1;strokeColor=none;fillColor=none;fontColor=#1A1A1A;" vertex="1" parent="WIyWlLk6GJQsqaUBKTNV-1">
          <mxGeometry x="192" y="595" width="40" height="30" as="geometry" />
        </mxCell>
        <mxCell id="5kgWmKOxe0cfHhXTzjxk-51" value="No" style="text;html=1;align=center;verticalAlign=middle;resizable=0;points=[];autosize=1;strokeColor=none;fillColor=none;fontColor=#1A1A1A;" vertex="1" parent="WIyWlLk6GJQsqaUBKTNV-1">
          <mxGeometry x="193" y="720" width="40" height="30" as="geometry" />
        </mxCell>
        <mxCell id="5kgWmKOxe0cfHhXTzjxk-52" value="No" style="text;html=1;align=center;verticalAlign=middle;resizable=0;points=[];autosize=1;strokeColor=none;fillColor=none;fontColor=#1A1A1A;" vertex="1" parent="WIyWlLk6GJQsqaUBKTNV-1">
          <mxGeometry x="232" y="820" width="40" height="30" as="geometry" />
        </mxCell>
      </root>
    </mxGraphModel>
  </diagram>
</mxfile>
